<?xml version="1.0" encoding="utf-8"?>
<!-- Generator: Adobe Illustrator 17.1.0, SVG Export Plug-In . SVG Version: 6.00 Build 0)  -->
<!DOCTYPE svg PUBLIC "-//W3C//DTD SVG 1.1//EN" "http://www.w3.org/Graphics/SVG/1.1/DTD/svg11.dtd">
<svg version="1.1" id="Layer_1" xmlns="http://www.w3.org/2000/svg" xmlns:xlink="http://www.w3.org/1999/xlink" x="0px" y="0px"
	 viewBox="0 0 320 80" enable-background="new 0 0 320 80" xml:space="preserve">
<path fill="#2A45A6" d="M84.8,54.1c-0.2-0.9-0.3-1.6-0.4-2.1c-0.4-2-0.5-2.3-1.3-8.7c-0.5-4.2-3.9-5.4-4.1-5.4l-5.8-1.6
	c-0.1-0.2-0.1-0.3-0.2-0.5c-0.9-2.1-2.2-5-2.2-7.1c0-0.4,0-0.8,0.1-1.2c0.1-0.3,0.2-0.6,0.3-0.9c0,0,0-0.1,0-0.1
	c0.7-1.8,2.3-2.3,4-2.8c2-0.6,4.4-1.4,4.4-4.5v-4.7h-6.9l-2.2-3h-8.5l-5.7,5.7v13c-1.8,2-12.8,14.5-17,19.9c-1,1.3-2.2,3.2-2.2,6.2
	c0,2.6,1.4,4.7,2.5,5.9c-0.8,0.6-1.4,1.6-1.4,2.7c0,0.4,0.1,0.8,0.2,1.2c-1.9-0.3-6.8-2.2-6.8-6.1c0-0.6-0.4-1-1-1s-1,0.4-1,1
	c0,5.4,6.5,8.2,9.2,8.2h2.6h0.8h20.4v-1c0-3.4-2.3-5-4-5.4c0.7-1,1.7-2.5,2.8-4.2c1.7,3.6,3.2,6.4,3.4,6.7l3.7,4h8.6l0-1
	c0-1.9-1.2-5.5-5.2-5.5h-0.6l-2.1-7.4c1.1-1,3.7-3.9,4.7-8.2h2.8c0.1,1.1,0.4,3,0.9,5.5c0.3,1.8,2.6,3.8,6.1,3.8h1.2L84.8,54.1z
	 M71.8,16.5h5.9v2.7c0,1.5-0.8,1.9-3,2.6c-1.5,0.5-3.3,1-4.5,2.5l-5.9-10.9h5.3L71.8,16.5z M62.4,14.1l6.8,12.5
	c0,0.2-0.1,0.3-0.1,0.5c-0.5,1-1.6,2.2-3.3,2.9c-1.6,0.7-4.2,1-7.3-1.2V17.9L62.4,14.1z M51.4,66.1h-8.9h-0.8
	c-0.7,0-1.3-0.5-1.3-1.2c0-0.7,0.5-1.3,1.3-1.3h8.9c0.6,0,2.2,0.6,2.7,2.5H51.4z M58.2,42.4c0-2.4,1.9-4.3,4.3-4.3
	c2.4,0,4.3,1.9,4.3,4.3c0,2.2-2.3,6.6-4.8,10.8C59.9,48.8,58.2,44.4,58.2,42.4z M67.7,53.1l-0.5,0.4L70,63.6h2.1c2,0,2.8,1.5,3,2.5
	h-5.5L66.7,63c-0.9-1.7-2.4-4.5-3.8-7.6c2.9-4.6,5.8-10.1,5.8-13c0-3.5-2.8-6.3-6.3-6.3c-3.5,0-6.3,2.8-6.3,6.3
	c0,2.6,2.2,8.1,4.5,12.9c-1.7,2.7-3.4,5.2-4.5,6.7L55,63.5h3.1c0.6,0,2.2,0.6,2.7,2.5h-5.6c-0.4-2.8-2.6-4.2-4.1-4.5
	c0.6-0.3,1.3-0.6,1.9-0.9c1.2-0.6,3.9-2,3.9-5.1c0-3-2.2-5.1-5.4-5.1h-6.6v2h6.6c1.7,0,3.4,0.8,3.4,3.1c0,1.8-1.5,2.7-2.8,3.4
	c-2.4,1.2-5.5,2.8-5.5,2.8L43.8,63l-1.6-1.3c0,0-3-2.4-3-5.6c0-2.4,0.9-3.9,1.7-5c4.5-5.8,17.1-19.9,17.2-20.1l0.1-0.1
	c1.8,1.1,3.5,1.4,4.9,1.4c1.4,0,2.5-0.3,3.3-0.7c1-0.4,1.8-1,2.5-1.6c0.4,2.2,1.4,4.5,2.2,6.3c0.4,0.9,0.7,1.7,0.8,2.1
	C74.2,47.7,68,52.9,67.7,53.1z M79.7,51.2c-0.7-3.7-0.9-6.2-0.9-6.3L78.7,44h-4.2c0.2-1.6,0.1-3.5-0.4-5.5l4.4,1.2
	c0,0,2.3,0.8,2.7,3.8c0.8,6.5,0.9,6.8,1.3,8.9c0,0.2,0.1,0.5,0.2,0.8C80.9,52.9,79.9,51.9,79.7,51.2z"/>
<g>
	<path fill="#2A45A6" d="M118.7,47.4c-0.1,0.1-0.2,0.2-0.3,0.3c-0.1,0.1-0.2,0.1-0.4,0.1c-0.2,0-0.3-0.1-0.5-0.2s-0.4-0.2-0.6-0.4
		c-0.2-0.1-0.5-0.3-0.8-0.4s-0.7-0.2-1.2-0.2c-0.6,0-1.1,0.1-1.6,0.3c-0.5,0.2-0.8,0.5-1.1,0.9c-0.3,0.4-0.5,0.9-0.7,1.5
		c-0.1,0.6-0.2,1.2-0.2,2c0,0.8,0.1,1.4,0.2,2c0.2,0.6,0.4,1.1,0.7,1.5s0.7,0.7,1.1,0.9c0.4,0.2,0.9,0.3,1.5,0.3s1-0.1,1.3-0.2
		c0.3-0.1,0.6-0.3,0.9-0.4c0.2-0.2,0.4-0.3,0.6-0.4c0.2-0.1,0.4-0.2,0.6-0.2c0.3,0,0.5,0.1,0.6,0.3l1,1.3c-0.4,0.4-0.8,0.8-1.2,1.1
		c-0.4,0.3-0.9,0.5-1.4,0.7c-0.5,0.2-1,0.3-1.5,0.4c-0.5,0.1-1,0.1-1.5,0.1c-0.9,0-1.7-0.2-2.5-0.5c-0.8-0.3-1.5-0.8-2.1-1.4
		s-1.1-1.4-1.4-2.3c-0.3-0.9-0.5-2-0.5-3.1c0-1.1,0.2-2,0.5-2.9s0.7-1.7,1.3-2.3c0.6-0.7,1.3-1.2,2.2-1.5c0.9-0.4,1.9-0.6,3-0.6
		c1.1,0,2,0.2,2.8,0.5s1.5,0.8,2.2,1.5L118.7,47.4z"/>
	<path fill="#2A45A6" d="M127.8,44.2c1.1,0,2,0.2,2.9,0.5s1.6,0.8,2.2,1.5s1.1,1.4,1.4,2.3c0.3,0.9,0.5,1.9,0.5,3.1
		c0,1.1-0.2,2.2-0.5,3.1c-0.3,0.9-0.8,1.7-1.4,2.3c-0.6,0.6-1.4,1.1-2.2,1.5s-1.8,0.5-2.9,0.5c-1.1,0-2-0.2-2.9-0.5
		c-0.9-0.3-1.6-0.8-2.2-1.5c-0.6-0.6-1.1-1.4-1.4-2.3c-0.3-0.9-0.5-1.9-0.5-3.1c0-1.1,0.2-2.2,0.5-3.1s0.8-1.7,1.4-2.3
		c0.6-0.6,1.4-1.1,2.2-1.5C125.7,44.3,126.7,44.2,127.8,44.2z M127.8,56.3c1.2,0,2.1-0.4,2.7-1.2s0.9-2,0.9-3.5s-0.3-2.7-0.9-3.5
		s-1.5-1.2-2.7-1.2c-1.2,0-2.1,0.4-2.7,1.2c-0.6,0.8-0.9,2-0.9,3.5s0.3,2.7,0.9,3.5C125.6,55.9,126.5,56.3,127.8,56.3z"/>
	<path fill="#2A45A6" d="M137.3,58.8V44.4h2.1c0.4,0,0.7,0.2,0.9,0.6l0.2,1.1c0.3-0.3,0.6-0.6,0.9-0.8c0.3-0.2,0.7-0.5,1-0.6
		c0.4-0.2,0.7-0.3,1.2-0.4c0.4-0.1,0.9-0.1,1.3-0.1c0.8,0,1.5,0.1,2.1,0.4s1.1,0.6,1.5,1.1c0.4,0.5,0.7,1.1,0.9,1.7s0.3,1.4,0.3,2.2
		v9.1h-3.5v-9.1c0-0.9-0.2-1.6-0.6-2c-0.4-0.5-1-0.7-1.8-0.7c-0.6,0-1.2,0.1-1.7,0.4c-0.5,0.3-1,0.6-1.5,1.1v10.4H137.3z"/>
	<path fill="#2A45A6" d="M157.5,59c-1.3,0-2.2-0.4-2.9-1.1c-0.7-0.7-1-1.7-1-2.9v-8h-1.5c-0.2,0-0.3-0.1-0.5-0.2s-0.2-0.3-0.2-0.5
		v-1.4l2.3-0.4l0.7-3.9c0-0.2,0.1-0.3,0.3-0.4c0.1-0.1,0.3-0.2,0.5-0.2h1.8v4.5h3.8V47H157v7.8c0,0.4,0.1,0.8,0.3,1.1
		c0.2,0.3,0.5,0.4,0.9,0.4c0.2,0,0.4,0,0.5-0.1c0.1-0.1,0.3-0.1,0.4-0.2c0.1-0.1,0.2-0.1,0.3-0.2c0.1-0.1,0.2-0.1,0.3-0.1
		c0.1,0,0.2,0,0.3,0.1c0.1,0.1,0.1,0.1,0.2,0.2l1,1.7c-0.5,0.4-1.1,0.7-1.7,1C158.8,58.9,158.2,59,157.5,59z"/>
	<path fill="#2A45A6" d="M163,58.8V44.4h2c0.4,0,0.6,0.1,0.7,0.2c0.1,0.1,0.2,0.4,0.3,0.7l0.2,1.6c0.5-0.9,1-1.5,1.6-2
		c0.6-0.5,1.3-0.7,2.2-0.7c0.7,0,1.2,0.1,1.6,0.4l-0.2,2.6c0,0.2-0.1,0.3-0.2,0.4c-0.1,0.1-0.2,0.1-0.4,0.1c-0.1,0-0.3,0-0.6-0.1
		c-0.3,0-0.5-0.1-0.8-0.1c-0.4,0-0.7,0.1-1,0.2c-0.3,0.1-0.6,0.3-0.8,0.5c-0.2,0.2-0.4,0.5-0.6,0.8c-0.2,0.3-0.4,0.6-0.5,1v8.8H163z
		"/>
	<path fill="#2A45A6" d="M182.8,58.8c-0.3,0-0.6,0-0.8-0.1c-0.2-0.1-0.3-0.3-0.4-0.6l-0.3-1c-0.4,0.3-0.7,0.6-1.1,0.9
		c-0.3,0.2-0.7,0.5-1.1,0.6c-0.4,0.2-0.8,0.3-1.2,0.4c-0.4,0.1-0.9,0.1-1.4,0.1c-0.6,0-1.2-0.1-1.7-0.2c-0.5-0.2-1-0.4-1.3-0.7
		c-0.4-0.3-0.7-0.7-0.9-1.2s-0.3-1-0.3-1.7c0-0.5,0.1-1.1,0.4-1.6c0.3-0.5,0.8-1,1.4-1.4c0.7-0.4,1.5-0.8,2.6-1.1
		c1.1-0.3,2.5-0.4,4.1-0.5v-0.8c0-1-0.2-1.7-0.6-2.1c-0.4-0.5-1-0.7-1.8-0.7c-0.6,0-1,0.1-1.4,0.2c-0.4,0.1-0.7,0.3-1,0.4
		s-0.5,0.3-0.8,0.4c-0.2,0.1-0.5,0.2-0.8,0.2c-0.2,0-0.4-0.1-0.6-0.2s-0.3-0.3-0.4-0.4l-0.6-1.1c1.7-1.5,3.6-2.3,6-2.3
		c0.8,0,1.6,0.1,2.3,0.4s1.2,0.7,1.7,1.1c0.5,0.5,0.8,1.1,1,1.8c0.2,0.7,0.4,1.4,0.4,2.2v9.1H182.8z M177.7,56.6
		c0.7,0,1.3-0.1,1.8-0.4c0.5-0.3,1-0.6,1.5-1.2v-2.4c-1,0-1.9,0.1-2.5,0.3c-0.7,0.1-1.2,0.3-1.6,0.5c-0.4,0.2-0.7,0.4-0.9,0.7
		s-0.3,0.5-0.3,0.9c0,0.6,0.2,1,0.5,1.3C176.6,56.5,177.1,56.6,177.7,56.6z"/>
	<path fill="#2A45A6" d="M197.8,47.4c-0.1,0.1-0.2,0.2-0.3,0.3c-0.1,0.1-0.2,0.1-0.4,0.1c-0.2,0-0.3-0.1-0.5-0.2s-0.4-0.2-0.6-0.4
		c-0.2-0.1-0.5-0.3-0.8-0.4c-0.3-0.1-0.7-0.2-1.2-0.2c-0.6,0-1.1,0.1-1.6,0.3c-0.5,0.2-0.8,0.5-1.1,0.9c-0.3,0.4-0.5,0.9-0.7,1.5
		s-0.2,1.2-0.2,2c0,0.8,0.1,1.4,0.2,2c0.2,0.6,0.4,1.1,0.7,1.5c0.3,0.4,0.7,0.7,1.1,0.9s0.9,0.3,1.5,0.3s1-0.1,1.3-0.2
		c0.3-0.1,0.6-0.3,0.9-0.4c0.2-0.2,0.4-0.3,0.6-0.4s0.4-0.2,0.6-0.2c0.3,0,0.5,0.1,0.6,0.3l1,1.3c-0.4,0.4-0.8,0.8-1.2,1.1
		s-0.9,0.5-1.4,0.7c-0.5,0.2-1,0.3-1.5,0.4c-0.5,0.1-1,0.1-1.5,0.1c-0.9,0-1.7-0.2-2.5-0.5c-0.8-0.3-1.5-0.8-2.1-1.4
		s-1.1-1.4-1.4-2.3s-0.5-2-0.5-3.1c0-1.1,0.2-2,0.5-2.9c0.3-0.9,0.7-1.7,1.3-2.3c0.6-0.7,1.3-1.2,2.2-1.5s1.9-0.6,3-0.6
		c1.1,0,2,0.2,2.8,0.5c0.8,0.3,1.5,0.8,2.2,1.5L197.8,47.4z"/>
	<path fill="#2A45A6" d="M206.1,59c-1.3,0-2.2-0.4-2.9-1.1c-0.7-0.7-1-1.7-1-2.9v-8h-1.5c-0.2,0-0.3-0.1-0.5-0.2s-0.2-0.3-0.2-0.5
		v-1.4l2.3-0.4l0.7-3.9c0-0.2,0.1-0.3,0.3-0.4c0.1-0.1,0.3-0.2,0.5-0.2h1.8v4.5h3.8V47h-3.8v7.8c0,0.4,0.1,0.8,0.3,1.1
		c0.2,0.3,0.5,0.4,0.9,0.4c0.2,0,0.4,0,0.5-0.1c0.1-0.1,0.3-0.1,0.4-0.2c0.1-0.1,0.2-0.1,0.3-0.2c0.1-0.1,0.2-0.1,0.3-0.1
		c0.1,0,0.2,0,0.3,0.1c0.1,0.1,0.1,0.1,0.2,0.2l1,1.7c-0.5,0.4-1.1,0.7-1.7,1C207.4,58.9,206.8,59,206.1,59z"/>
	<path fill="#2A45A6" d="M212.8,58.8V38.1h2.5v8.3c0.6-0.6,1.3-1.2,2-1.5c0.7-0.4,1.6-0.6,2.5-0.6c0.8,0,1.5,0.1,2.1,0.4
		s1.1,0.6,1.5,1.1s0.7,1,0.9,1.7c0.2,0.7,0.3,1.4,0.3,2.2v9h-2.5v-9c0-1.1-0.2-1.9-0.7-2.5s-1.2-0.9-2.2-0.9c-0.7,0-1.4,0.2-2.1,0.5
		c-0.6,0.4-1.2,0.8-1.8,1.4v10.4H212.8z"/>
	<path fill="#2A45A6" d="M234.2,44.4c1,0,2,0.2,2.8,0.5c0.8,0.3,1.5,0.8,2.1,1.5s1,1.4,1.4,2.3c0.3,0.9,0.5,1.9,0.5,3
		c0,1.1-0.2,2.1-0.5,3c-0.3,0.9-0.8,1.7-1.4,2.3s-1.3,1.1-2.1,1.5c-0.8,0.3-1.8,0.5-2.8,0.5c-1,0-2-0.2-2.8-0.5
		c-0.8-0.3-1.5-0.8-2.1-1.5s-1-1.4-1.4-2.3c-0.3-0.9-0.5-1.9-0.5-3c0-1.1,0.2-2.1,0.5-3c0.3-0.9,0.8-1.7,1.4-2.3s1.3-1.1,2.1-1.5
		C232.2,44.5,233.2,44.4,234.2,44.4z M234.2,57c1.4,0,2.4-0.5,3.1-1.4c0.7-0.9,1-2.2,1-3.9c0-1.7-0.3-3-1-3.9
		c-0.7-0.9-1.7-1.4-3.1-1.4c-0.7,0-1.3,0.1-1.9,0.4c-0.5,0.2-1,0.6-1.3,1.1c-0.4,0.5-0.6,1-0.8,1.7s-0.3,1.4-0.3,2.3
		c0,1.7,0.3,3,1,3.9C231.8,56.5,232.8,57,234.2,57z"/>
	<path fill="#2A45A6" d="M246.3,44.6v9c0,1.1,0.2,1.9,0.7,2.5c0.5,0.6,1.2,0.9,2.2,0.9c0.7,0,1.4-0.2,2.1-0.5
		c0.6-0.3,1.2-0.8,1.8-1.4V44.6h2.5v14.2h-1.5c-0.4,0-0.6-0.2-0.7-0.5l-0.2-1.5c-0.6,0.7-1.3,1.2-2.1,1.6s-1.6,0.6-2.6,0.6
		c-0.8,0-1.5-0.1-2.1-0.4c-0.6-0.3-1.1-0.6-1.5-1.1c-0.4-0.5-0.7-1-0.9-1.7c-0.2-0.7-0.3-1.4-0.3-2.2v-9H246.3z"/>
	<path fill="#2A45A6" d="M259.3,58.8V44.6h1.5c0.4,0,0.6,0.2,0.7,0.5l0.2,1.5c0.6-0.7,1.3-1.2,2.1-1.7c0.8-0.4,1.6-0.6,2.6-0.6
		c0.8,0,1.5,0.1,2.1,0.4s1.1,0.6,1.5,1.1s0.7,1,0.9,1.7c0.2,0.7,0.3,1.4,0.3,2.2v9h-2.5v-9c0-1.1-0.2-1.9-0.7-2.5s-1.2-0.9-2.2-0.9
		c-0.7,0-1.4,0.2-2.1,0.5c-0.6,0.4-1.2,0.8-1.8,1.4v10.4H259.3z"/>
	<path fill="#2A45A6" d="M285,58.8c-0.4,0-0.6-0.2-0.7-0.5l-0.2-1.7c-0.6,0.7-1.3,1.3-2.1,1.8s-1.7,0.7-2.7,0.7
		c-0.8,0-1.5-0.2-2.2-0.5c-0.7-0.3-1.2-0.8-1.7-1.4s-0.8-1.4-1.1-2.3c-0.3-0.9-0.4-1.9-0.4-3.1c0-1,0.1-2,0.4-2.9
		c0.3-0.9,0.7-1.7,1.2-2.3s1.2-1.2,1.9-1.6c0.8-0.4,1.6-0.6,2.6-0.6c0.9,0,1.6,0.1,2.2,0.4c0.6,0.3,1.2,0.7,1.7,1.2v-7.9h2.5v20.6
		H285z M280.2,56.9c0.8,0,1.5-0.2,2.1-0.6c0.6-0.4,1.2-0.9,1.7-1.6V48c-0.5-0.6-1-1-1.5-1.3c-0.5-0.3-1.1-0.4-1.8-0.4
		c-1.3,0-2.3,0.5-3,1.4c-0.7,0.9-1.1,2.3-1.1,4c0,0.9,0.1,1.7,0.2,2.4c0.2,0.7,0.4,1.2,0.7,1.6c0.3,0.4,0.7,0.7,1.1,0.9
		C279.1,56.8,279.6,56.9,280.2,56.9z"/>
</g>
</svg>
