<?xml version="1.0" encoding="utf-8"?>
<!-- Generator: Adobe Illustrator 17.1.0, SVG Export Plug-In . SVG Version: 6.00 Build 0)  -->
<!DOCTYPE svg PUBLIC "-//W3C//DTD SVG 1.1//EN" "http://www.w3.org/Graphics/SVG/1.1/DTD/svg11.dtd">
<svg version="1.1" id="Layer_1" xmlns="http://www.w3.org/2000/svg" xmlns:xlink="http://www.w3.org/1999/xlink" x="0px" y="0px"
	 viewBox="0 0 270 64" enable-background="new 0 0 270 64" xml:space="preserve">
<path fill="#909FAE" d="M58.2,46.8c-0.2-0.9-0.3-1.7-0.4-2.2c-0.4-2.1-0.5-2.4-1.4-9.1c-0.5-4.4-4.1-5.6-4.3-5.6l-6.1-1.7
	c-0.1-0.2-0.1-0.3-0.2-0.5c-0.9-2.2-2.3-5.2-2.3-7.4c0-0.4,0-0.8,0.1-1.3c0.1-0.3,0.2-0.6,0.3-0.9v-0.1c0.7-1.9,2.4-2.4,4.2-2.9
	c2.1-0.6,4.6-1.5,4.6-4.7V5.4h-7.2l-2.3-3.1h-8.9l-6,6v13.6C26.5,23.9,15,36.9,10.6,42.6c-1,1.4-2.3,3.3-2.3,6.5
	c0,2.7,1.5,4.9,2.6,6.2c-0.8,0.6-1.5,1.7-1.5,2.8c0,0.4,0.1,0.8,0.2,1.3c-2-0.3-7.1-2.3-7.1-6.4c0-0.6-0.4-1-1-1s-1,0.4-1,1
	c0,5.6,6.8,8.6,9.6,8.6h2.7h0.8H35v-1c0-3.6-2.4-5.2-4.2-5.6c0.7-1,1.8-2.6,2.9-4.4c1.8,3.8,3.3,6.7,3.6,7l3.9,4.2h9v-1
	c0-2-1.3-5.8-5.4-5.8h-0.6l-2.2-7.7c1.2-1,3.9-4.1,4.9-8.6h2.9c0.1,1.2,0.4,3.1,0.9,5.8c0.3,1.9,2.7,4,6.4,4h1.3L58.2,46.8z
	 M44.6,7.5h6.2v2.8c0,1.6-0.8,2-3.1,2.7c-1.6,0.5-3.5,1-4.7,2.6L36.8,4.2h5.5L44.6,7.5z M34.8,4.9L41.9,18c0,0.2-0.1,0.3-0.1,0.5
	c-0.5,1-1.7,2.3-3.5,3c-1.7,0.7-4.4,1-7.6-1.3V8.9L34.8,4.9z M23.3,59.3H14h-0.8c-0.7,0-1.4-0.5-1.4-1.3c0-0.7,0.5-1.4,1.4-1.4h9.3
	c0.6,0,2.3,0.6,2.8,2.6L23.3,59.3L23.3,59.3z M30.4,34.5c0-2.5,2-4.5,4.5-4.5c2.5,0,4.5,2,4.5,4.5c0,2.3-2.4,6.9-5,11.3
	C32.2,41.2,30.4,36.6,30.4,34.5z M40.3,45.7l-0.5,0.4l2.9,10.6h2.2c2.1,0,2.9,1.6,3.1,2.6h-5.8l-3-3.2c-0.9-1.8-2.5-4.7-4-7.9
	c3-4.8,6.1-10.6,6.1-13.6c0-3.7-2.9-6.6-6.6-6.6c-3.7,0-6.6,2.9-6.6,6.6c0,2.7,2.3,8.5,4.7,13.5c-1.8,2.8-3.6,5.4-4.7,7l-1.2,1.6
	h3.2c0.6,0,2.3,0.6,2.8,2.6h-5.9c-0.4-2.9-2.7-4.4-4.3-4.7c0.6-0.3,1.4-0.6,2-0.9c1.3-0.6,4.1-2.1,4.1-5.3c0-3.1-2.3-5.3-5.6-5.3
	h-6.9V45h6.9c1.8,0,3.6,0.8,3.6,3.2c0,1.9-1.6,2.8-2.9,3.6c-2.5,1.3-5.8,2.9-5.8,2.9l-2.9,1.4l-1.7-1.4c0,0-3.1-2.5-3.1-5.9
	c0-2.5,0.9-4.1,1.8-5.2c4.7-6.1,17.9-20.8,18-21l0.1-0.1c1.9,1.2,3.7,1.5,5.1,1.5c1.5,0,2.6-0.3,3.5-0.7c1-0.4,1.9-1,2.6-1.7
	c0.4,2.3,1.5,4.7,2.3,6.6c0.4,0.9,0.7,1.8,0.8,2.2C47.1,40.1,40.6,45.5,40.3,45.7z M52.9,43.7c-0.7-3.9-0.9-6.5-0.9-6.6l-0.1-0.9
	h-4.4c0.2-1.7,0.1-3.7-0.4-5.8l4.6,1.3c0,0,2.4,0.8,2.8,4c0.8,6.8,0.9,7.1,1.4,9.3c0,0.2,0.1,0.5,0.2,0.8
	C54.1,45.5,53.1,44.5,52.9,43.7z"/>
<g>
	<path fill="#909FAE" d="M93.7,39.8c-0.1,0.1-0.2,0.2-0.3,0.3c-0.1,0.1-0.2,0.1-0.4,0.1c-0.2,0-0.3-0.1-0.5-0.2
		c-0.2-0.1-0.4-0.2-0.6-0.4c-0.2-0.1-0.5-0.3-0.8-0.4c-0.3-0.1-0.7-0.2-1.3-0.2c-0.6,0-1.2,0.1-1.7,0.3c-0.5,0.2-0.8,0.5-1.2,0.9
		c-0.3,0.4-0.5,0.9-0.7,1.6c-0.1,0.6-0.2,1.3-0.2,2.1s0.1,1.5,0.2,2.1c0.2,0.6,0.4,1.2,0.7,1.6c0.3,0.4,0.7,0.7,1.2,0.9
		c0.4,0.2,0.9,0.3,1.6,0.3s1-0.1,1.4-0.2c0.3-0.1,0.6-0.3,0.9-0.4c0.2-0.2,0.4-0.3,0.6-0.4s0.4-0.2,0.6-0.2c0.3,0,0.5,0.1,0.6,0.3
		l1,1.4c-0.4,0.4-0.8,0.8-1.3,1.2c-0.4,0.3-0.9,0.5-1.5,0.7c-0.5,0.2-1,0.3-1.6,0.4c-0.5,0.1-1,0.1-1.6,0.1c-0.9,0-1.8-0.2-2.6-0.5
		c-0.8-0.3-1.6-0.8-2.2-1.5s-1.2-1.5-1.5-2.4c-0.3-0.9-0.5-2.1-0.5-3.2s0.2-2.1,0.5-3c0.3-0.9,0.7-1.8,1.4-2.4
		c0.6-0.7,1.4-1.3,2.3-1.6c0.9-0.4,2-0.6,3.1-0.6s2.1,0.2,2.9,0.5c0.8,0.3,1.6,0.8,2.3,1.6L93.7,39.8z"/>
	<path fill="#909FAE" d="M103.2,36.4c1.2,0,2.1,0.2,3,0.5c0.9,0.3,1.7,0.8,2.3,1.6c0.6,0.7,1.2,1.5,1.5,2.4c0.3,0.9,0.5,2,0.5,3.2
		c0,1.2-0.2,2.3-0.5,3.2c-0.3,0.9-0.8,1.8-1.5,2.4c-0.6,0.6-1.5,1.2-2.3,1.6c-0.8,0.4-1.9,0.5-3,0.5s-2.1-0.2-3-0.5
		c-0.9-0.3-1.7-0.8-2.3-1.6c-0.6-0.6-1.2-1.5-1.5-2.4c-0.3-0.9-0.5-2-0.5-3.2c0-1.2,0.2-2.3,0.5-3.2c0.3-0.9,0.8-1.8,1.5-2.4
		c0.6-0.6,1.5-1.2,2.3-1.6C101,36.5,102,36.4,103.2,36.4z M103.2,49.1c1.3,0,2.2-0.4,2.8-1.3s0.9-2.1,0.9-3.7s-0.3-2.8-0.9-3.7
		s-1.6-1.3-2.8-1.3s-2.2,0.4-2.8,1.3s-0.9,2.1-0.9,3.7s0.3,2.8,0.9,3.7C100.9,48.7,101.8,49.1,103.2,49.1z"/>
	<path fill="#909FAE" d="M113.1,51.7V36.6h2.2c0.4,0,0.7,0.2,0.9,0.6l0.2,1.2c0.3-0.3,0.6-0.6,0.9-0.8c0.3-0.2,0.7-0.5,1-0.6
		c0.4-0.2,0.7-0.3,1.3-0.4c0.4-0.1,0.9-0.1,1.4-0.1c0.8,0,1.6,0.1,2.2,0.4s1.2,0.6,1.6,1.2c0.4,0.5,0.7,1.2,0.9,1.8
		c0.2,0.6,0.3,1.5,0.3,2.3v9.5h-3.7v-9.5c0-0.9-0.2-1.7-0.6-2.1c-0.4-0.5-1-0.7-1.9-0.7c-0.6,0-1.3,0.1-1.8,0.4
		c-0.5,0.3-1,0.6-1.6,1.2v10.9C116.6,51.7,113.1,51.7,113.1,51.7z"/>
	<path fill="#909FAE" d="M134.2,51.9c-1.4,0-2.3-0.4-3-1.2c-0.7-0.7-1-1.8-1-3v-8.4h-1.6c-0.2,0-0.3-0.1-0.5-0.2
		c-0.2-0.1-0.2-0.3-0.2-0.5v-1.5l2.4-0.4l0.7-4.1c0-0.2,0.1-0.3,0.3-0.4c0.1-0.1,0.3-0.2,0.5-0.2h1.9v4.7h4v2.6h-4v8.2
		c0,0.4,0.1,0.8,0.3,1.2s0.5,0.4,0.9,0.4c0.2,0,0.4,0,0.5-0.1c0.1-0.1,0.3-0.1,0.4-0.2c0.1-0.1,0.2-0.1,0.3-0.2
		c0.1-0.1,0.2-0.1,0.3-0.1c0.1,0,0.2,0,0.3,0.1c0.1,0.1,0.1,0.1,0.2,0.2l1,1.8c-0.5,0.4-1.2,0.7-1.8,1
		C135.6,51.8,135,51.9,134.2,51.9z"/>
	<path fill="#909FAE" d="M140,51.7V36.6h2.1c0.4,0,0.6,0.1,0.7,0.2c0.1,0.1,0.2,0.4,0.3,0.7l0.2,1.7c0.5-0.9,1-1.6,1.7-2.1
		c0.6-0.5,1.4-0.7,2.3-0.7c0.7,0,1.3,0.1,1.7,0.4l-0.2,2.7c0,0.2-0.1,0.3-0.2,0.4c-0.1,0.1-0.2,0.1-0.4,0.1c-0.1,0-0.3,0-0.6-0.1
		c-0.3,0-0.5-0.1-0.8-0.1c-0.4,0-0.7,0.1-1,0.2c-0.3,0.1-0.6,0.3-0.8,0.5c-0.2,0.2-0.4,0.5-0.6,0.8c-0.2,0.3-0.4,0.6-0.5,1v9.2
		C143.6,51.7,140,51.7,140,51.7z"/>
	<path fill="#909FAE" d="M160.7,51.7c-0.3,0-0.6,0-0.8-0.1c-0.2-0.1-0.3-0.3-0.4-0.6l-0.3-1c-0.4,0.3-0.7,0.6-1.2,0.9
		c-0.3,0.2-0.7,0.5-1.2,0.6c-0.4,0.2-0.8,0.3-1.3,0.4c-0.4,0.1-0.9,0.1-1.5,0.1c-0.6,0-1.3-0.1-1.8-0.2c-0.5-0.2-1-0.4-1.4-0.7
		c-0.4-0.3-0.7-0.7-0.9-1.3c-0.2-0.5-0.3-1-0.3-1.8c0-0.5,0.1-1.2,0.4-1.7c0.3-0.5,0.8-1,1.5-1.5c0.7-0.4,1.6-0.8,2.7-1.2
		c1.2-0.3,2.6-0.4,4.3-0.5v-0.8c0-1-0.2-1.8-0.6-2.2c-0.4-0.5-1-0.7-1.9-0.7c-0.6,0-1,0.1-1.5,0.2c-0.4,0.1-0.7,0.3-1,0.4
		c-0.3,0.1-0.5,0.3-0.8,0.4c-0.2,0.1-0.5,0.2-0.8,0.2c-0.2,0-0.4-0.1-0.6-0.2s-0.3-0.3-0.4-0.4l-0.6-1.2c1.8-1.6,3.8-2.4,6.3-2.4
		c0.8,0,1.7,0.1,2.4,0.4c0.7,0.3,1.3,0.7,1.8,1.2c0.5,0.5,0.8,1.2,1,1.9c0.2,0.7,0.4,1.5,0.4,2.3v9.5h-1.5V51.7z M155.3,49.4
		c0.7,0,1.4-0.1,1.9-0.4c0.5-0.3,1-0.6,1.6-1.3v-2.5c-1,0-2,0.1-2.6,0.3c-0.7,0.1-1.3,0.3-1.7,0.5c-0.4,0.2-0.7,0.4-0.9,0.7
		c-0.2,0.3-0.3,0.5-0.3,0.9c0,0.6,0.2,1,0.5,1.4C154.2,49.3,154.7,49.4,155.3,49.4z"/>
	<path fill="#909FAE" d="M176.4,39.8c-0.1,0.1-0.2,0.2-0.3,0.3c-0.1,0.1-0.2,0.1-0.4,0.1s-0.3-0.1-0.5-0.2c-0.2-0.1-0.4-0.2-0.6-0.4
		c-0.2-0.1-0.5-0.3-0.8-0.4c-0.3-0.1-0.7-0.2-1.3-0.2c-0.6,0-1.2,0.1-1.7,0.3s-0.8,0.5-1.2,0.9c-0.3,0.4-0.5,0.9-0.7,1.6
		s-0.2,1.3-0.2,2.1s0.1,1.5,0.2,2.1c0.2,0.6,0.4,1.2,0.7,1.6c0.3,0.4,0.7,0.7,1.2,0.9c0.4,0.2,0.9,0.3,1.6,0.3c0.6,0,1-0.1,1.4-0.2
		c0.3-0.1,0.6-0.3,0.9-0.4c0.2-0.2,0.4-0.3,0.6-0.4c0.2-0.1,0.4-0.2,0.6-0.2c0.3,0,0.5,0.1,0.6,0.3l1,1.4c-0.4,0.4-0.8,0.8-1.3,1.2
		s-0.9,0.5-1.5,0.7c-0.5,0.2-1,0.3-1.6,0.4c-0.5,0.1-1,0.1-1.6,0.1c-0.9,0-1.8-0.2-2.6-0.5c-0.8-0.3-1.6-0.8-2.2-1.5
		c-0.6-0.6-1.2-1.5-1.5-2.4s-0.5-2.1-0.5-3.2s0.2-2.1,0.5-3s0.7-1.8,1.4-2.4c0.6-0.7,1.4-1.3,2.3-1.6c0.9-0.3,2-0.6,3.1-0.6
		s2.1,0.2,2.9,0.5c0.8,0.3,1.6,0.8,2.3,1.6L176.4,39.8z"/>
	<path fill="#909FAE" d="M185,51.9c-1.4,0-2.3-0.4-3-1.2c-0.7-0.7-1-1.8-1-3v-8.4h-1.6c-0.2,0-0.3-0.1-0.5-0.2
		c-0.2-0.1-0.2-0.3-0.2-0.5v-1.5l2.4-0.4l0.7-4.1c0-0.2,0.1-0.3,0.3-0.4c0.1-0.1,0.3-0.2,0.5-0.2h1.9v4.7h4v2.6h-4v8.2
		c0,0.4,0.1,0.8,0.3,1.2s0.5,0.4,0.9,0.4c0.2,0,0.4,0,0.5-0.1c0.1-0.1,0.3-0.1,0.4-0.2c0.1-0.1,0.2-0.1,0.3-0.2
		c0.1-0.1,0.2-0.1,0.3-0.1s0.2,0,0.3,0.1c0.1,0.1,0.1,0.1,0.2,0.2l1,1.8c-0.5,0.4-1.2,0.7-1.8,1C186.4,51.8,185.8,51.9,185,51.9z"/>
	<path fill="#909FAE" d="M192,51.7V30h2.6v8.7c0.6-0.6,1.4-1.3,2.1-1.6c0.7-0.4,1.7-0.6,2.6-0.6c0.8,0,1.6,0.1,2.2,0.4
		c0.6,0.3,1.2,0.6,1.6,1.2c0.4,0.5,0.7,1,0.9,1.8s0.3,1.5,0.3,2.3v9.4h-2.6v-9.4c0-1.2-0.2-2-0.7-2.6s-1.3-0.9-2.3-0.9
		c-0.7,0-1.5,0.2-2.2,0.5c-0.6,0.4-1.3,0.8-1.9,1.5v10.9H192V51.7z"/>
	<path fill="#909FAE" d="M214.4,36.6c1,0,2.1,0.2,2.9,0.5s1.6,0.8,2.2,1.6c0.6,0.7,1,1.5,1.5,2.4c0.3,0.9,0.5,2,0.5,3.1
		c0,1.2-0.2,2.2-0.5,3.1c-0.3,0.9-0.8,1.8-1.5,2.4c-0.6,0.6-1.4,1.2-2.2,1.6c-0.8,0.3-1.9,0.5-2.9,0.5s-2.1-0.2-2.9-0.5
		c-0.8-0.3-1.6-0.8-2.2-1.6c-0.6-0.7-1-1.5-1.5-2.4c-0.3-0.9-0.5-2-0.5-3.1c0-1.2,0.2-2.2,0.5-3.1s0.8-1.8,1.5-2.4
		c0.6-0.6,1.4-1.2,2.2-1.6C212.3,36.7,213.4,36.6,214.4,36.6z M214.4,49.8c1.5,0,2.5-0.5,3.2-1.5c0.7-0.9,1-2.3,1-4.1
		c0-1.8-0.3-3.1-1-4.1s-1.8-1.5-3.2-1.5c-0.7,0-1.4,0.1-2,0.4c-0.5,0.2-1,0.6-1.4,1.2c-0.4,0.5-0.6,1-0.8,1.8
		c-0.2,0.7-0.3,1.5-0.3,2.4c0,1.8,0.3,3.1,1,4.1C211.9,49.3,213,49.8,214.4,49.8z"/>
	<path fill="#909FAE" d="M227.1,36.8v9.4c0,1.2,0.2,2,0.7,2.6c0.5,0.6,1.3,0.9,2.3,0.9c0.7,0,1.5-0.2,2.2-0.5
		c0.6-0.3,1.3-0.8,1.9-1.5v-11h2.6v14.8h-1.6c-0.4,0-0.6-0.2-0.7-0.5l-0.2-1.6c-0.6,0.7-1.4,1.3-2.2,1.7c-0.8,0.4-1.7,0.6-2.7,0.6
		c-0.8,0-1.6-0.1-2.2-0.4c-0.6-0.3-1.2-0.6-1.6-1.2c-0.4-0.5-0.7-1-0.9-1.8c-0.2-0.7-0.3-1.5-0.3-2.3v-9.4
		C224.4,36.8,227.1,36.8,227.1,36.8z"/>
	<path fill="#909FAE" d="M240.7,51.7V36.8h1.6c0.4,0,0.6,0.2,0.7,0.5l0.2,1.6c0.6-0.7,1.4-1.3,2.2-1.8c0.8-0.4,1.7-0.6,2.7-0.6
		c0.8,0,1.6,0.1,2.2,0.4c0.6,0.3,1.2,0.6,1.6,1.2c0.4,0.5,0.7,1,0.9,1.8c0.2,0.7,0.3,1.5,0.3,2.3v9.4h-2.6v-9.4c0-1.2-0.2-2-0.7-2.6
		s-1.3-0.9-2.3-0.9c-0.7,0-1.5,0.2-2.2,0.5c-0.6,0.4-1.3,0.8-1.9,1.5v10.9h-2.7V51.7z"/>
	<path fill="#909FAE" d="M267.5,51.7c-0.4,0-0.6-0.2-0.7-0.5l-0.2-1.8c-0.6,0.7-1.4,1.4-2.2,1.9c-0.8,0.5-1.8,0.7-2.8,0.7
		c-0.8,0-1.6-0.2-2.3-0.5c-0.7-0.3-1.3-0.8-1.8-1.5c-0.5-0.6-0.8-1.5-1.2-2.4c-0.3-0.9-0.4-2-0.4-3.2c0-1,0.1-2.1,0.4-3
		s0.7-1.8,1.3-2.4c0.5-0.6,1.3-1.3,2-1.7c0.8-0.4,1.7-0.6,2.7-0.6c0.9,0,1.7,0.1,2.3,0.4c0.6,0.3,1.3,0.7,1.8,1.3V30h2.6v21.5h-1.5
		V51.7z M262.5,49.7c0.8,0,1.6-0.2,2.2-0.6s1.3-0.9,1.8-1.7v-7c-0.5-0.6-1-1-1.6-1.4c-0.5-0.3-1.2-0.4-1.9-0.4
		c-1.4,0-2.4,0.5-3.1,1.5s-1.2,2.4-1.2,4.2c0,0.9,0.1,1.8,0.2,2.5c0.2,0.7,0.4,1.3,0.7,1.7c0.3,0.4,0.7,0.7,1.2,0.9
		C261.4,49.6,261.9,49.7,262.5,49.7z"/>
</g>
</svg>
